<?xml version="1.0" standalone="no"?>
<!DOCTYPE svg PUBLIC "-//W3C//DTD SVG 20010904//EN"
 "http://www.w3.org/TR/2001/REC-SVG-20010904/DTD/svg10.dtd">
<svg version="1.0" xmlns="http://www.w3.org/2000/svg"
 width="980.000000pt" height="980.000000pt" viewBox="0 0 980.000000 980.000000"
 preserveAspectRatio="xMidYMid meet">

<g transform="translate(0.000000,980.000000) scale(0.100000,-0.100000)"
fill="#000000" stroke="none">
<path d="M4560 9789 c-1035 -75 -1992 -461 -2800 -1127 -147 -122 -499 -473
-622 -622 -954 -1153 -1333 -2643 -1042 -4100 161 -808 515 -1546 1055 -2195
193 -232 558 -576 819 -771 1178 -881 2704 -1185 4135 -823 1207 306 2258
1067 2932 2125 674 1058 914 2348 667 3584 -212 1063 -759 2006 -1584 2733
-752 662 -1694 1071 -2720 1182 -174 19 -664 27 -840 14z m790 -514 c910 -97
1740 -456 2425 -1047 157 -136 422 -410 546 -566 544 -679 859 -1442 956
-2314 21 -190 24 -665 5 -848 -110 -1067 -547 -1989 -1293 -2727 -172 -169
-277 -260 -461 -398 -538 -404 -1167 -678 -1830 -800 -620 -113 -1260 -93
-1868 60 -679 170 -1299 495 -1830 961 -155 135 -400 390 -521 542 -543 678
-858 1441 -956 2314 -23 212 -23 684 0 896 81 723 310 1370 693 1954 760 1162
2008 1891 3404 1988 168 12 552 4 730 -15z"/>
<path d="M4689 6322 l-1876 -1867 694 -3 c381 -1 693 -6 693 -11 0 -4 -240
-644 -534 -1422 -294 -777 -534 -1414 -533 -1415 1 -1 869 841 1929 1870
l1927 1871 -695 3 c-382 1 -694 6 -694 11 0 9 938 2724 965 2794 8 20 11 37 7
36 -4 0 -851 -840 -1883 -1867z"/>
</g>
</svg>
