<svg xmlns="http://www.w3.org/2000/svg" height="512pt" version="1.1" viewBox="-23 0 512 512" width="512pt">
<g id="surface1">
<path d="M 337.953125 230.601562 C 404.113281 239.886719 455.015625 296.65625 455.015625 365.378906 C 455.015625 440.503906 394.082031 501.4375 318.957031 501.4375 C 267.3125 501.4375 222.277344 472.625 199.335938 430.152344 C 188.878906 410.839844 182.902344 388.75 182.902344 365.273438 C 182.902344 290.148438 243.835938 229.214844 318.957031 229.214844 C 325.363281 229.320312 331.660156 229.75 337.953125 230.601562 Z M 337.953125 230.601562 " style=" stroke:none;fill-rule:nonzero;fill:rgb(99.607843%,85.882353%,25.490196%);fill-opacity:1;" />
<path d="M 337.953125 230.601562 C 331.765625 229.75 325.363281 229.320312 318.957031 229.320312 C 243.835938 229.320312 182.902344 290.253906 182.902344 365.378906 C 182.902344 388.855469 188.878906 410.945312 199.335938 430.257812 L 199.121094 430.367188 L 57.199219 430.367188 C 31.265625 430.367188 10.242188 409.34375 10.242188 383.414062 L 10.242188 57.730469 C 10.242188 31.800781 31.265625 10.777344 57.199219 10.777344 L 229.429688 10.777344 L 229.429688 88.464844 C 229.429688 108.523438 245.648438 124.746094 265.710938 124.746094 L 337.953125 124.746094 Z M 337.953125 230.601562 " style=" stroke:none;fill-rule:nonzero;fill:rgb(0%,67.45098%,91.764706%);fill-opacity:1;" />
<path d="M 229.429688 10.777344 L 337.953125 124.746094 L 265.710938 124.746094 C 245.648438 124.746094 229.429688 108.523438 229.429688 88.464844 Z M 229.429688 10.777344 " style=" stroke:none;fill-rule:nonzero;fill:rgb(0%,93.72549%,81.960784%);fill-opacity:1;" />
<path d="M 348.945312 221.640625 L 348.945312 124.746094 C 348.945312 121.96875 347.664062 119.410156 345.851562 117.382812 L 237.21875 3.308594 C 235.191406 1.175781 232.308594 0 229.429688 0 L 57.199219 0 C 25.398438 0 0 25.929688 0 57.730469 L 0 383.414062 C 0 415.214844 25.398438 440.71875 57.199219 440.71875 L 193.148438 440.71875 C 219.609375 485.535156 267.203125 512 318.960938 512 C 399.847656 512 465.6875 446.265625 465.6875 365.273438 C 465.6875 329.632812 452.988281 295.375 429.511719 268.59375 C 408.277344 244.476562 379.890625 228.042969 348.945312 221.640625 Z M 240.101562 37.457031 L 312.984375 114.179688 L 265.710938 114.179688 C 251.625 114.179688 240.097656 102.550781 240.097656 88.464844 L 240.097656 37.457031 Z M 21.34375 383.414062 L 21.34375 57.730469 C 21.34375 37.667969 37.242188 21.34375 57.199219 21.34375 L 218.757812 21.34375 L 218.757812 88.464844 C 218.757812 114.394531 239.78125 135.523438 265.710938 135.523438 L 327.605469 135.523438 L 327.605469 218.863281 C 324.402344 218.757812 321.839844 218.332031 319.066406 218.332031 C 281.824219 218.332031 247.570312 232.628906 221.746094 255.039062 L 86.222656 255.039062 C 80.355469 255.039062 75.550781 259.839844 75.550781 265.710938 C 75.550781 271.582031 80.351562 276.382812 86.222656 276.382812 L 201.898438 276.382812 C 194.320312 287.054688 188.023438 297.726562 183.117188 309.464844 L 86.222656 309.464844 C 80.355469 309.464844 75.550781 314.265625 75.550781 320.132812 C 75.550781 326.003906 80.351562 330.804688 86.222656 330.804688 L 176.179688 330.804688 C 173.511719 341.476562 172.125 353.320312 172.125 365.167969 C 172.125 383.839844 175.644531 402.300781 182.476562 419.375 L 57.199219 419.375 C 37.242188 419.375 21.34375 403.367188 21.34375 383.414062 Z M 318.960938 490.765625 C 272.96875 490.765625 230.601562 465.582031 208.621094 425.136719 C 198.695312 406.890625 193.46875 386.292969 193.46875 365.378906 C 193.46875 296.230469 249.703125 239.992188 318.851562 239.992188 C 324.722656 239.992188 330.589844 240.421875 336.351562 241.167969 C 366.019531 245.328125 393.335938 260.054688 413.183594 282.679688 C 433.246094 305.515625 444.238281 334.859375 444.238281 365.378906 C 444.34375 434.527344 388.109375 490.765625 318.960938 490.765625 Z M 318.960938 490.765625 " style=" stroke:none;fill-rule:nonzero;fill:rgb(3.137255%,21.960784%,38.823529%);fill-opacity:1;" />
<path d="M 86.222656 223.027344 L 194.320312 223.027344 C 200.191406 223.027344 204.992188 218.222656 204.992188 212.355469 C 204.992188 206.484375 200.191406 201.683594 194.320312 201.683594 L 86.222656 201.683594 C 80.355469 201.683594 75.550781 206.484375 75.550781 212.355469 C 75.550781 218.222656 80.355469 223.027344 86.222656 223.027344 Z M 86.222656 223.027344 " style=" stroke:none;fill-rule:nonzero;fill:rgb(3.137255%,21.960784%,38.823529%);fill-opacity:1;" />
<path d="M 373.59375 363.136719 L 329.738281 410.410156 L 329.738281 293.882812 C 329.738281 288.011719 324.933594 283.210938 319.066406 283.210938 C 313.195312 283.210938 308.394531 288.011719 308.394531 293.882812 L 308.394531 410.410156 L 264.214844 363.136719 C 260.160156 358.871094 253.332031 358.550781 249.0625 362.601562 C 244.792969 366.660156 244.472656 373.382812 248.527344 377.648438 L 310.953125 444.769531 C 312.980469 446.90625 315.757812 448.1875 318.742188 448.1875 C 321.730469 448.1875 324.507812 446.90625 326.53125 444.769531 L 388.957031 377.648438 C 393.015625 373.382812 392.800781 366.550781 388.53125 362.601562 C 384.265625 358.550781 377.648438 358.871094 373.59375 363.136719 Z M 373.59375 363.136719 " style=" stroke:none;fill-rule:nonzero;fill:rgb(3.137255%,21.960784%,38.823529%);fill-opacity:1;" />
</g>
</svg>