<svg height="640pt" viewBox="-30 0 640 640" width="640pt" xmlns="http://www.w3.org/2000/svg"><path d="m300.585938 101.449219-15.308594-101.449219h-224.601563c-33.820312 0-60.675781 27.554688-60.675781 61.371094v424.71875c0 33.816406 26.855469 60.8125 60.675781 60.8125h213.054688l153.492187-232.402344v-165.734375zm0 0" fill="#00acea"/><path d="m285.277344.140625 141.527344 148.625h-94.210938c-26.164062 0-47.316406-21.152344-47.316406-47.316406zm0 0" fill="#00efd1"/><g fill="#083863"><path d="m98.527344 346.507812h181.324218c7.652344 0 13.917969-6.257812 13.917969-13.914062 0-7.652344-6.265625-13.917969-13.917969-13.917969h-181.324218c-7.652344 0-13.917969 6.265625-13.917969 13.917969 0 7.65625 6.265625 13.914062 13.917969 13.914062zm0 0"/><path d="m98.527344 276.929688h140.96875c7.652344 0 13.917968-6.261719 13.917968-13.917969 0-7.652344-6.265624-13.914063-13.917968-13.914063h-140.96875c-7.652344 0-13.917969 6.261719-13.917969 13.914063 0 7.65625 6.265625 13.917969 13.917969 13.917969zm0 0"/><path d="m234.066406 389.648438h-135.539062c-7.652344 0-13.917969 6.265624-13.917969 13.914062 0 7.65625 6.265625 13.917969 13.917969 13.917969h135.539062c7.65625 0 13.917969-6.261719 13.917969-13.917969 0-7.648438-6.261719-13.914062-13.917969-13.914062zm0 0"/></g><path d="m426.804688 286.8125c86.28125 12.101562 152.65625 86.136719 152.65625 175.753906 0 97.96875-79.457032 177.433594-177.425782 177.433594-67.351562 0-126.078125-37.574219-156-92.960938-13.636718-25.1875-21.429687-53.992187-21.429687-84.609374 0-97.96875 79.460937-177.429688 177.429687-177.429688 8.351563.140625 16.558594.699219 24.769532 1.8125zm0 0" fill="#fedb41"/><path d="m349.011719 505.015625-50.097657-42.726563 50.097657-42.71875c5.847656-5.011718 6.542969-13.78125 1.535156-19.625-5.011719-5.84375-13.78125-6.539062-19.625-1.527343l-62.480469 53.296875c-3.058594 2.644531-4.871094 6.542968-4.871094 10.574218 0 4.039063 1.8125 7.933594 4.871094 10.578126l62.480469 53.300781c2.648437 2.226562 5.84375 3.339843 9.046875 3.339843 3.898438 0 7.792969-1.671874 10.578125-4.875 5.144531-5.84375 4.3125-14.609374-1.535156-19.617187zm0 0" fill="#083863"/><path d="m535.074219 451.714844-62.488281-53.296875c-5.84375-5.011719-14.609376-4.316407-19.617188 1.527343-5.011719 5.84375-4.316406 14.613282 1.527344 19.625l50.097656 42.71875-50.097656 42.726563c-5.84375 5.007813-6.539063 13.773437-1.527344 19.617187 2.78125 3.203126 6.679688 4.875 10.574219 4.875 3.199219 0 6.402343-1.113281 9.042969-3.339843l62.488281-53.300781c3.058593-2.644532 4.867187-6.539063 4.867187-10.578126 0-4.03125-1.808594-7.929687-4.867187-10.574218zm0 0" fill="#083863"/><path d="m421.519531 356.804688c-7.515625-1.527344-14.894531 3.203124-16.421875 10.71875l-38.964844 185.082031c-1.535156 7.515625 3.199219 14.890625 10.710938 16.421875.976562.136718 1.949219.277344 2.925781.277344 6.402344 0 12.246094-4.453126 13.636719-10.996094l38.964844-185.082032c1.394531-7.371093-3.339844-14.75-10.851563-16.421874zm0 0" fill="#083863"/></svg>