<?xml version="1.0"?>
<svg xmlns="http://www.w3.org/2000/svg" xmlns:xlink="http://www.w3.org/1999/xlink" viewBox="0 0 512 512" width="512" height="512"><defs><linearGradient id="linear-gradient" x1="80.64" y1="420.958" x2="395.855" y2="105.742" gradientUnits="userSpaceOnUse"><stop offset="0" stop-color="#41dfd0"/><stop offset="1" stop-color="#ee83ef"/></linearGradient></defs><g id="gradient"><path d="M264,272H200V256h64Zm0,16H200v16h64Zm-64,80H312V352H200Zm72,32h40V384H272ZM493.119,267.443C483.8,305.263,443.492,336,404.542,336H344V441.714A6.286,6.286,0,0,1,337.714,448H312v25.714A6.286,6.286,0,0,1,305.714,480H142.286A6.286,6.286,0,0,1,136,473.714V336H108A92,92,0,0,1,80.907,156.075,80,80,0,0,1,157,88.056a104.022,104.022,0,0,1,201.832,16.359,56.123,56.123,0,0,1,48.6,47.647,91.345,91.345,0,0,1,61.618,26.881C491.883,201.769,501.237,234.486,493.119,267.443ZM296,448H174.286A6.286,6.286,0,0,1,168,441.714V264H152V464H296Zm32-168H286.286A6.286,6.286,0,0,1,280,273.714V232H184V432H328Zm-32-16h20.686L296,243.314Zm150.765-82.9a75.174,75.174,0,0,0-42.9-13.1h-5.609a6.252,6.252,0,0,1-6.283-6.431A40.043,40.043,0,0,0,352.113,120a14.821,14.821,0,0,1-2.677-.178,6.386,6.386,0,0,1-5.641-5.853,88.012,88.012,0,0,0-173.036-15.9,8,8,0,0,1-8.151,6c-.937-.047-1.79-.07-2.608-.07a64.245,64.245,0,0,0-63.856,60.017,6.383,6.383,0,0,1-4.931,5.863c-39.953,9.03-66.21,48.079-57.564,90.2a72.152,72.152,0,0,0,10.882,25.857C59.245,307.7,82.674,320,108,320h28V304H120V288h16V254.286A6.286,6.286,0,0,1,142.286,248H168V222.286A6.286,6.286,0,0,1,174.286,216H288a8,8,0,0,1,5.657,2.343l48,48A8,8,0,0,1,344,272v16h60.811c16.5,0,34.891-12.593,40.4-28.15C456.144,228.966,433.391,200,404,200a43.841,43.841,0,0,0-23.687,6.912l-8.627-13.474A59.8,59.8,0,0,1,404,184c39.331,0,69.945,38.041,56.981,79.262C453.305,287.668,430.3,304,404.718,304H344v16h60.664c31.439,0,64.445-24.676,72.55-55.052C485.9,232.4,473.87,199.906,446.765,181.1ZM200,336H312V320H200Zm51.2-198.4-32,24,9.6,12.8L248,160v40h16V160l19.2,14.4,9.6-12.8-32-24A8,8,0,0,0,251.2,137.6ZM88,304h16V288H88ZM264,104H248v16h16Zm16,16h16V104H280Zm-48-16H216v16h16Z" style="fill:url(#linear-gradient)"/></g></svg>
